<svg width="34" height="34" viewBox="0 0 34 34" fill="none" xmlns="http://www.w3.org/2000/svg">
<path d="M24.2666 20.3333C24.3999 19.2333 24.4999 18.1333 24.4999 16.9999C24.4999 15.8666 24.3999 14.7666 24.2666 13.6666H29.8999C30.1666 14.7333 30.3333 15.8499 30.3333 16.9999C30.3333 18.1499 30.1666 19.2666 29.8999 20.3333H24.2666ZM21.3166 29.5999C22.3166 27.7499 23.0833 25.7499 23.6166 23.6666H28.5333C26.9333 26.4166 24.3833 28.5499 21.3166 29.5999ZM20.8999 20.3333H13.0999C12.9333 19.2333 12.8333 18.1333 12.8333 16.9999C12.8333 15.8666 12.9333 14.7499 13.0999 13.6666H20.8999C21.0499 14.7499 21.1666 15.8666 21.1666 16.9999C21.1666 18.1333 21.0499 19.2333 20.8999 20.3333ZM16.9999 30.2666C15.6166 28.2666 14.4999 26.0499 13.8166 23.6666H20.1833C19.4999 26.0499 18.3833 28.2666 16.9999 30.2666ZM10.3333 10.3333H5.46659C7.04992 7.56659 9.61658 5.43325 12.6666 4.39992C11.6666 6.24992 10.9166 8.24992 10.3333 10.3333ZM5.46659 23.6666H10.3333C10.9166 25.7499 11.6666 27.7499 12.6666 29.5999C9.61658 28.5499 7.04992 26.4166 5.46659 23.6666ZM4.09992 20.3333C3.83325 19.2666 3.66659 18.1499 3.66659 16.9999C3.66659 15.8499 3.83325 14.7333 4.09992 13.6666H9.73325C9.59992 14.7666 9.49992 15.8666 9.49992 16.9999C9.49992 18.1333 9.59992 19.2333 9.73325 20.3333H4.09992ZM16.9999 3.71659C18.3833 5.71659 19.4999 7.94992 20.1833 10.3333H13.8166C14.4999 7.94992 15.6166 5.71659 16.9999 3.71659ZM28.5333 10.3333H23.6166C23.0833 8.24992 22.3166 6.24992 21.3166 4.39992C24.3833 5.44992 26.9333 7.56659 28.5333 10.3333ZM16.9999 0.333252C7.78325 0.333252 0.333252 7.83325 0.333252 16.9999C0.333252 21.4202 2.0892 25.6594 5.21481 28.785C6.76245 30.3327 8.59977 31.5603 10.6219 32.3979C12.644 33.2355 14.8112 33.6666 16.9999 33.6666C21.4202 33.6666 25.6594 31.9106 28.785 28.785C31.9106 25.6594 33.6666 21.4202 33.6666 16.9999C33.6666 14.8112 33.2355 12.644 32.3979 10.6219C31.5603 8.59977 30.3327 6.76245 28.785 5.21481C27.2374 3.66716 25.4001 2.4395 23.378 1.60193C21.3559 0.764348 19.1886 0.333252 16.9999 0.333252Z" fill="black"/>
</svg>
